<?xml version="1.0" encoding="UTF-8" standalone="no"?>
<!DOCTYPE svg PUBLIC "-//W3C//DTD SVG 1.1//EN" "http://www.w3.org/Graphics/SVG/1.1/DTD/svg11.dtd">
<svg width="100%" height="100%" viewBox="0 0 11587 10931" version="1.1" xmlns="http://www.w3.org/2000/svg" xmlns:xlink="http://www.w3.org/1999/xlink" xml:space="preserve" xmlns:serif="http://www.serif.com/" style="fill-rule:evenodd;clip-rule:evenodd;stroke-linejoin:round;stroke-miterlimit:2;">
    <g transform="matrix(1,0,0,1,-3581.77,-3909.98)">
        <g id="Head">
            <path d="M5878.83,9496.12C5055.97,8933.17 4508.45,8278.28 4131.19,7566.64C4908.28,8175.76 5464.38,8437.63 5950.51,8589.52C4298.26,7707.22 3397.01,6491.13 3613.58,4778.23C3921.03,5404.68 4475.05,5850.31 5405.44,6019.93C6318.06,5944.58 7171.44,6619.57 7959.46,8122.32C7871.05,7478.99 7700.07,7021.44 7445.54,6751.87C7445.54,6751.87 8205.28,6297.67 9541.04,6297.67C10876.8,6297.67 11510.2,6681.7 11510.2,6681.7C11339.2,6904.82 11215.2,7362.36 11127.3,8000.77C11780.1,6734.1 12589.2,5732 13782.1,5379.33C14323.9,4969.43 14792.2,4486 15168,3909.98C15185.1,5804.06 14483.4,7270.78 12963.9,8251.23C13416.4,8080 14099.4,7504.51 14884.1,6751.88C14781.8,7273.52 14166.7,8037.61 12912,8983.98C13365.7,9708.7 13604.2,10410.9 13514.7,11068.9C13421,11757.4 12972,12411 11998,12992.1C11994.7,12994.1 11991.3,12996 11987.8,12997.8C11275.7,13356.6 10652.7,13714.5 10210.9,14073.4C9936.21,14296.4 9733.08,14516.3 9633.27,14739.4C9608.98,14793.7 9559.83,14831.1 9503.05,14838.7C9446.27,14846.2 9389.76,14822.7 9353.33,14776.5C8949.38,14263.9 7936.08,13711.8 6820.13,13144.3C6820.11,13144.3 6820.09,13144.3 6820.07,13144.3C6097.58,12776.6 5665.51,12275.7 5513.82,11653C5368.25,11055.4 5483.39,10335.7 5878.85,9496.13L5878.85,9496.12L5878.83,9496.12ZM12638.8,9185.5C12303.4,9427.8 11927.9,9681.03 11510.2,9944.4C10988,10433.7 10489.2,10993.4 10008.6,11607.3C10008.6,11607.3 9758.13,11223.3 9390.79,11223.3C9023.45,11223.3 8756.3,11607.3 8756.3,11607.3C8347.49,11062.5 7786.89,10582.7 7087.38,10162.4C6752.23,10013.4 6448.11,9854.09 6171.91,9685.49L6161.78,9686.28L6161.77,9686.29C5822.63,10417.8 5709.91,11043.1 5837.4,11566.5C5967.06,12098.8 6348.41,12515.3 6966,12829.6C8007.83,13359.3 8957.43,13887.9 9451.18,14376.7C9581.33,14183.3 9769.35,13989.3 10006.3,13796.8C10462.2,13426.6 11103.5,13055.4 11837.9,12685.1C12688.8,12176.2 13102.1,11622.3 13184.1,11019.5C13263.2,10438.5 13038,9824.51 12638.8,9185.51L12638.8,9185.5Z" style="fill:rgb(243,243,243);"/>
            <path d="M9447.88,13928C9017.89,13187.3 8837.34,12473.4 8940.61,11790C9227.39,11263.2 9528.26,11271.2 9841.94,11766.3C9964.72,12432 9827.41,13153.9 9447.88,13928L9447.88,13928Z" style="fill:rgb(243,243,243);"/>
            <path d="M6504.58,10154C6409.04,10336.8 6359.36,10537.9 6359.36,10741.6C6359.36,11475.5 6991.36,12071.3 7769.82,12071.3C8062.72,12071.3 8348.35,11985.3 8587.07,11825.3L8292.86,11435.2C8140.08,11537.6 7957.27,11592.6 7769.82,11592.6C7271.6,11592.6 6867.12,11211.3 6867.12,10741.6C6867.12,10611.2 6898.92,10482.5 6960.06,10365.6L6504.58,10154L6504.58,10154Z" style="fill:rgb(243,243,243);"/>
            <path d="M10235.5,11655C10458.9,11785.7 10716.5,11855 10979.4,11855C11757.8,11855 12389.8,11259.2 12389.8,10525.3C12389.8,10277.5 12316.4,10034.6 12177.7,9824.06L11746.3,10076.5C11835.1,10211.3 11882.1,10366.7 11882.1,10525.3C11882.1,10995 11477.6,11376.3 10979.4,11376.3C10811.1,11376.3 10646.2,11332 10503.3,11248.3L10235.5,11655L10235.5,11655Z" style="fill:rgb(243,243,243);"/>
        </g>
    </g>
</svg>
